<svg xmlns="http://www.w3.org/2000/svg" width="24" height="24" version="1.1" viewBox="0 0 24 24"><g fill="none" fill-rule="evenodd" stroke="none" stroke-width="1"><path d="M0 0h24v24H0z" fill="#FFF" fill-opacity=".01" fill-rule="nonzero"/><path d="M18 16a4 4 0 1 0 0-8"/><path d="M18 16a4 4 0 1 0 0-8" stroke="#212121" stroke-linejoin="round" stroke-width="1.5"/><path d="M6 8a4 4 0 1 0 0 8"/><path d="M6 8a4 4 0 1 0 0 8" stroke="#212121" stroke-linejoin="round" stroke-width="1.5"/><path d="M6 16V8a6 6 0 0 1 12 0v8a6 6 0 0 1-6 6" stroke="#212121" stroke-linecap="round" stroke-linejoin="round" stroke-width="1.5"/></g></svg>